<svg width="23" height="25" fill="none" xmlns="http://www.w3.org/2000/svg"><g filter="url(#filter0_d)"><path d="M6.927 8.731a11.676 11.676 0 005.125 5.031l1.711-1.68a.783.783 0 01.794-.182 9.026 9.026 0 002.776.435c.428 0 .778.343.778.763v2.665c0 .42-.35.763-.778.763-7.303 0-13.222-5.81-13.222-12.979 0-.42.35-.763.778-.763H7.61c.428 0 .778.343.778.763 0 .955.155 1.87.443 2.726a.756.756 0 01-.194.779l-1.711 1.68z" fill="#9BD147"/></g><defs><filter id="filter0_d" x="-2.222" y=".494" width="26.667" height="26.323" filterUnits="userSpaceOnUse" color-interpolation-filters="sRGB"><feFlood flood-opacity="0" result="BackgroundImageFix"/><feColorMatrix in="SourceAlpha" values="0 0 0 0 0 0 0 0 0 0 0 0 0 0 0 0 0 0 127 0"/><feOffset dy="4"/><feGaussianBlur stdDeviation="2"/><feColorMatrix values="0 0 0 0 0 0 0 0 0 0 0 0 0 0 0 0 0 0 0.25 0"/><feBlend in2="BackgroundImageFix" result="effect1_dropShadow"/><feBlend in="SourceGraphic" in2="effect1_dropShadow" result="shape"/></filter></defs></svg>