<svg width="376" height="58" fill="none" xmlns="http://www.w3.org/2000/svg"><path d="M.265 1.272h16.2V57H.265V1.272zm19.602 26.001h1.944c1.728 0 2.997-.054 3.807-.162.864-.162 1.539-.486 2.025-.972.486-.432.783-1.053.891-1.863.162-.864.243-2.133.243-3.807s-.081-2.916-.243-3.726c-.108-.864-.405-1.539-.891-2.025-.486-.432-1.161-.702-2.025-.81-.864-.162-2.133-.243-3.807-.243h-1.944V1.272h6.723c3.996 0 7.236.405 9.72 1.215 2.538.756 4.455 1.944 5.751 3.564 1.242 1.512 2.079 3.429 2.511 5.751.432 2.268.648 5.157.648 8.667 0 3.348-.216 6.129-.648 8.343-.378 2.214-1.161 4.077-2.349 5.589-1.35 1.728-3.294 3.051-5.832 3.969-2.484.864-5.751 1.296-9.801 1.296h-6.723V27.273zm63.547 1.863c0-4.698-.027-7.776-.081-9.234-.108-2.214-.405-3.807-.891-4.779-.486-1.026-1.269-1.647-2.349-1.863-1.08-.162-2.619-.243-4.617-.243-2.322 0-3.834.108-4.536.324V.705c.486-.054 1.215-.081 2.187-.081h2.349c6.048 0 10.719.486 14.013 1.458 3.348.918 5.778 2.457 7.29 4.617 1.404 1.998 2.268 4.617 2.592 7.857.378 3.24.567 8.1.567 14.58 0 5.67-.135 10.044-.405 13.122-.216 3.024-.81 5.535-1.782 7.533-1.08 2.268-2.754 3.996-5.022 5.184-2.214 1.188-5.319 1.971-9.315 2.349V29.136zm-7.938 28.512c-7.884 0-13.554-.864-17.01-2.592-1.782-.864-3.186-2.025-4.212-3.483-1.026-1.458-1.782-3.267-2.268-5.427-.432-1.89-.702-4.05-.81-6.48-.108-2.484-.162-5.994-.162-10.53 0-5.67.108-10.017.324-13.041.27-3.024.891-5.562 1.863-7.614 1.08-2.214 2.727-3.915 4.941-5.103 2.214-1.188 5.346-1.998 9.396-2.43v28.188c0 3.186.054 6.237.162 9.153.108 2.214.378 3.834.81 4.86.486 1.026 1.269 1.62 2.349 1.782.918.216 2.457.324 4.617.324 2.214 0 3.726-.081 4.536-.243v12.555c-.486.054-1.215.081-2.187.081h-2.349zM109.03 1.272h16.2V57h-16.2V1.272zm19.602 42.687h17.334V57h-17.334V43.959z" fill="#fff"/><path d="M152.852 3.702v-2.43h14.904l23.328 49.572L188.411 57h-10.53L152.852 3.702zm45.765 29.889h-.324l-5.427 13.122-6.966-14.904 12.717-30.537h15.39V57h-15.39V33.591zm-45.765-21.87l14.904 31.752V57h-14.904V11.721zm84.302-10.449h1.377l6.399 22.194L235.615 57h-16.2l17.739-55.728zm18.225 45.846h-13.527l3.402-12.474h6.48l-9.558-33.372h14.823L274.738 57h-16.524l-2.835-9.882zm24.747-45.846h16.2V57h-16.2V1.272zm22.842 36.774h-3.24V25.653h2.754c1.674 0 2.943-.054 3.807-.162.864-.162 1.539-.432 2.025-.81.432-.378.729-.945.891-1.701.162-.756.243-1.863.243-3.321 0-1.458-.081-2.565-.243-3.321-.162-.81-.459-1.404-.891-1.782-.432-.378-1.08-.621-1.944-.729-.81-.108-2.106-.162-3.888-.162h-2.754V1.272h8.343c3.834 0 6.939.378 9.315 1.134 2.376.756 4.212 1.917 5.508 3.483 1.188 1.458 1.971 3.267 2.349 5.427.432 2.16.648 4.941.648 8.343 0 4.374-.405 7.749-1.215 10.125-1.134 3.024-3.132 5.157-5.994 6.399L327.106 57h-17.01l-7.128-18.954zM330.17 1.272h45.603v12.96H330.17V1.272zm14.661 16.2h16.2V57h-16.2V17.472z" fill="#73B211"/></svg>