<svg width="24" height="25" viewBox="0 0 24 25" fill="none" xmlns="http://www.w3.org/2000/svg">
<path d="M15.5 14.4724H14.71L14.43 14.2074C15.41 13.0884 16 11.6356 16 10.0552C16 6.53131 13.09 3.67487 9.5 3.67487C5.91 3.67487 3 6.53131 3 10.0552C3 13.5792 5.91 16.4356 9.5 16.4356C11.11 16.4356 12.59 15.8565 13.73 14.8945L14 15.1693V15.9448L19 20.843L20.49 19.3804L15.5 14.4724ZM9.5 14.4724C7.01 14.4724 5 12.4994 5 10.0552C5 7.61106 7.01 5.63806 9.5 5.63806C11.99 5.63806 14 7.61106 14 10.0552C14 12.4994 11.99 14.4724 9.5 14.4724Z" fill="#4E4E4E"/>
</svg>
