<svg width="376" height="58" viewBox="0 0 376 58" fill="none" xmlns="http://www.w3.org/2000/svg">
<path d="M0.265 1.272H16.465V57H0.265V1.272ZM19.867 27.273H21.811C23.539 27.273 24.808 27.219 25.618 27.111C26.482 26.949 27.157 26.625 27.643 26.139C28.129 25.707 28.426 25.086 28.534 24.276C28.696 23.412 28.777 22.143 28.777 20.469C28.777 18.795 28.696 17.553 28.534 16.743C28.426 15.879 28.129 15.204 27.643 14.718C27.157 14.286 26.482 14.016 25.618 13.908C24.754 13.746 23.485 13.665 21.811 13.665H19.867V1.272H26.59C30.586 1.272 33.826 1.677 36.31 2.487C38.848 3.243 40.765 4.431 42.061 6.051C43.303 7.563 44.14 9.48 44.572 11.802C45.004 14.07 45.22 16.959 45.22 20.469C45.22 23.817 45.004 26.598 44.572 28.812C44.194 31.026 43.411 32.889 42.223 34.401C40.873 36.129 38.929 37.452 36.391 38.37C33.907 39.234 30.64 39.666 26.59 39.666H19.867V27.273ZM83.414 29.136C83.414 24.438 83.387 21.36 83.333 19.902C83.225 17.688 82.928 16.095 82.442 15.123C81.956 14.097 81.173 13.476 80.093 13.26C79.013 13.098 77.474 13.017 75.476 13.017C73.154 13.017 71.642 13.125 70.94 13.341V0.704996C71.426 0.650996 72.155 0.623997 73.127 0.623997H75.476C81.524 0.623997 86.195 1.11 89.489 2.082C92.837 3 95.267 4.539 96.779 6.699C98.183 8.697 99.047 11.316 99.371 14.556C99.749 17.796 99.938 22.656 99.938 29.136C99.938 34.806 99.803 39.18 99.533 42.258C99.317 45.282 98.723 47.793 97.751 49.791C96.671 52.059 94.997 53.787 92.729 54.975C90.515 56.163 87.41 56.946 83.414 57.324V29.136ZM75.476 57.648C67.592 57.648 61.922 56.784 58.466 55.056C56.684 54.192 55.28 53.031 54.254 51.573C53.228 50.115 52.472 48.306 51.986 46.146C51.554 44.256 51.284 42.096 51.176 39.666C51.068 37.182 51.014 33.672 51.014 29.136C51.014 23.466 51.122 19.119 51.338 16.095C51.608 13.071 52.229 10.533 53.201 8.481C54.281 6.267 55.928 4.566 58.142 3.378C60.356 2.19 63.488 1.38 67.538 0.947997V29.136C67.538 32.322 67.592 35.373 67.7 38.289C67.808 40.503 68.078 42.123 68.51 43.149C68.996 44.175 69.779 44.769 70.859 44.931C71.777 45.147 73.316 45.255 75.476 45.255C77.69 45.255 79.202 45.174 80.012 45.012V57.567C79.526 57.621 78.797 57.648 77.825 57.648H75.476ZM109.03 1.272H125.23V57H109.03V1.272ZM128.632 43.959H145.966V57H128.632V43.959Z" fill="white"/>
<path d="M152.852 3.702V1.272H167.756L191.084 50.844L188.411 57H177.881L152.852 3.702ZM198.617 33.591H198.293L192.866 46.713L185.9 31.809L198.617 1.272H214.007V57H198.617V33.591ZM152.852 11.721L167.756 43.473V57H152.852V11.721ZM237.154 1.272H238.531L244.93 23.466L235.615 57H219.415L237.154 1.272ZM255.379 47.118H241.852L245.254 34.644H251.734L242.176 1.272H256.999L274.738 57H258.214L255.379 47.118ZM280.126 1.272H296.326V57H280.126V1.272ZM302.968 38.046H299.728V25.653H302.482C304.156 25.653 305.425 25.599 306.289 25.491C307.153 25.329 307.828 25.059 308.314 24.681C308.746 24.303 309.043 23.736 309.205 22.98C309.367 22.224 309.448 21.117 309.448 19.659C309.448 18.201 309.367 17.094 309.205 16.338C309.043 15.528 308.746 14.934 308.314 14.556C307.882 14.178 307.234 13.935 306.37 13.827C305.56 13.719 304.264 13.665 302.482 13.665H299.728V1.272H308.071C311.905 1.272 315.01 1.65 317.386 2.406C319.762 3.162 321.598 4.323 322.894 5.889C324.082 7.347 324.865 9.156 325.243 11.316C325.675 13.476 325.891 16.257 325.891 19.659C325.891 24.033 325.486 27.408 324.676 29.784C323.542 32.808 321.544 34.941 318.682 36.183L327.106 57H310.096L302.968 38.046ZM330.17 1.272H375.773V14.232H330.17V1.272ZM344.831 17.472H361.031V57H344.831V17.472Z" fill="#73B211"/>
</svg>
