<?xml version="1.0" standalone="no"?>
<!DOCTYPE svg PUBLIC "-//W3C//DTD SVG 20010904//EN"
 "http://www.w3.org/TR/2001/REC-SVG-20010904/DTD/svg10.dtd">
<svg version="1.0" xmlns="http://www.w3.org/2000/svg"
 width="1152.000000pt" height="1152.000000pt" viewBox="0 0 1152.000000 1152.000000"
 preserveAspectRatio="xMidYMid meet">
<metadata>
Created by potrace 1.14, written by Peter Selinger 2001-2017
</metadata>
<g transform="translate(0.000000,1152.000000) scale(0.100000,-0.100000)"
fill="#000000" stroke="none">
<path d="M240 10266 c-90 -24 -172 -95 -214 -185 l-21 -46 0 -4275 0 -4275 28
-56 c32 -66 99 -132 165 -162 l47 -22 5515 0 5515 0 47 22 c66 30 133 96 165
162 l28 56 0 4275 0 4275 -28 56 c-32 66 -99 132 -165 162 l-47 22 -5495 2
c-4320 1 -5505 -1 -5540 -11z m6075 -886 c328 -24 554 -73 725 -157 78 -39
111 -63 181 -133 71 -70 94 -100 127 -170 82 -170 112 -333 133 -720 13 -243
6 -1206 -10 -1380 -33 -343 -104 -533 -256 -685 -102 -103 -228 -171 -397
-215 -115 -30 -280 -60 -330 -60 l-28 0 0 1098 c0 603 -5 1162 -10 1242 -16
237 -52 331 -145 379 l-49 26 -288 0 -288 0 0 386 c0 212 3 389 7 392 10 11
472 8 628 -3z m-834 -1225 c6 -1286 6 -1284 54 -1402 21 -52 71 -98 122 -113
81 -23 340 -31 541 -15 l52 4 0 -395 0 -394 -263 0 c-634 0 -984 70 -1214 244
-155 117 -255 328 -298 626 -35 244 -43 1223 -14 1663 26 396 133 642 343 791
82 58 143 88 256 124 126 40 339 83 395 78 20 -1 20 -10 26 -1211z m-3181
-540 l0 -1735 -505 0 -505 0 0 1735 0 1735 505 0 505 0 0 -1735z m1030 1707
c374 -69 569 -205 671 -467 115 -296 115 -1103 -1 -1391 -104 -260 -320 -415
-665 -477 -108 -19 -155 -22 -475 -22 l-355 0 0 380 0 380 162 6 c184 8 222
13 274 39 52 27 86 72 99 132 29 136 20 471 -14 552 -37 86 -98 107 -336 115
l-185 6 -3 375 c-1 206 0 381 3 389 9 22 686 9 825 -17z m5738 -1709 l2 -1733
-510 0 -510 0 0 1735 0 1735 508 -2 507 -3 3 -1732z m1290 -1325 l2 -408 -545
0 -545 0 0 403 c0 222 3 407 7 410 3 4 248 6 542 5 l536 -3 3 -407z m-8488
-2095 c40 -87 257 -549 482 -1027 l410 -869 -54 -126 -55 -126 -218 0 -219 0
-518 1104 c-461 982 -518 1109 -518 1153 l0 48 308 0 308 0 74 -157z m1840
-998 l0 -1155 -315 0 -315 0 0 486 c0 340 -3 485 -11 482 -6 -2 -58 -118 -115
-258 -58 -140 -109 -258 -113 -263 -7 -7 -284 576 -284 598 0 11 28 80 226
555 49 118 126 305 172 415 46 110 92 221 104 248 l20 47 316 0 315 0 0 -1155z
m1153 697 c124 -430 130 -456 120 -500 -5 -26 -40 -155 -77 -287 -37 -132
-101 -361 -142 -510 -89 -318 -143 -513 -150 -537 -5 -17 -30 -18 -335 -18
-270 0 -329 2 -329 14 0 10 705 2232 725 2284 3 8 16 12 31 10 26 -3 29 -12
157 -456z m645 426 c10 -35 218 -689 522 -1643 103 -324 191 -600 194 -612 l7
-23 -340 0 -340 0 -11 38 c-5 20 -31 111 -58 202 l-47 165 -281 5 -280 5 66
240 c36 132 69 248 72 258 7 15 23 17 138 17 120 0 131 1 126 18 -16 53 -376
1315 -382 1336 l-6 26 305 0 306 0 9 -32z m1622 -1123 l0 -1155 -335 0 -335 0
0 1155 0 1155 335 0 335 0 0 -1155z m780 1131 c258 -60 366 -162 417 -391 27
-119 26 -565 -1 -680 -34 -147 -101 -248 -208 -316 -29 -18 -55 -34 -57 -36
-2 -1 1 -15 7 -30 6 -15 84 -207 172 -425 88 -218 160 -399 160 -402 0 -3
-157 -6 -349 -6 l-348 0 -148 395 -149 395 -68 0 -68 0 0 254 0 254 148 4
c169 4 203 15 236 82 26 53 27 270 2 332 -28 67 -56 78 -233 82 l-153 4 0 248
c0 135 3 250 8 254 13 15 561 -1 632 -18z m2510 -241 l0 -265 -940 0 -940 0 0
265 0 265 940 0 940 0 0 -265z m-8931 -832 l301 -642 0 -286 0 -285 -305 0
-305 0 0 932 c0 512 2 929 4 927 2 -2 139 -293 305 -646z m8321 -393 l0 -820
-332 2 -333 3 -3 805 c-1 443 0 811 3 818 3 9 80 12 335 12 l330 0 0 -820z"/>
</g>
</svg>
