<?xml version="1.0" standalone="no"?>
<!DOCTYPE svg PUBLIC "-//W3C//DTD SVG 20010904//EN"
 "http://www.w3.org/TR/2001/REC-SVG-20010904/DTD/svg10.dtd">
<svg version="1.0" xmlns="http://www.w3.org/2000/svg"
 width="157.000000pt" height="157.000000pt" viewBox="0 0 157.000000 157.000000"
 preserveAspectRatio="xMidYMid meet">
<metadata>
Created by potrace 1.11, written by Peter Selinger 2001-2013
</metadata>
<g transform="translate(0.000000,157.000000) scale(0.100000,-0.100000)"
fill="#000000" stroke="none">
<path d="M250 779 l0 -781 348 4 c319 4 352 6 409 25 86 29 141 63 197 122 59
64 92 134 106 229 28 179 -46 336 -193 413 l-64 33 56 36 c111 72 153 145 159
276 8 180 -54 296 -200 370 -92 47 -156 54 -500 54 l-318 0 0 -781z m659 595
c63 -18 125 -72 142 -122 22 -65 17 -163 -12 -218 -27 -54 -94 -106 -157 -124
-20 -5 -124 -10 -229 -10 l-193 0 0 245 0 245 198 0 c150 0 211 -4 251 -16z
m18 -659 c123 -37 178 -118 178 -265 -1 -104 -28 -167 -94 -217 -70 -54 -119
-63 -348 -63 l-203 0 0 280 0 280 208 0 c156 0 221 -4 259 -15z"/>
</g>
</svg>
